<?xml version="1.0" encoding="utf-8"?>
<!-- Generator: Adobe Illustrator 16.0.4, SVG Export Plug-In . SVG Version: 6.00 Build 0)  -->
<!DOCTYPE svg PUBLIC "-//W3C//DTD SVG 1.1//EN" "http://www.w3.org/Graphics/SVG/1.1/DTD/svg11.dtd">
<svg version="1.1" id="Text" xmlns="http://www.w3.org/2000/svg"  x="0px" y="0px"
	 width="562.423px" height="936.345px" viewBox="45.997 17.846 562.423 936.345"
	 enable-background="new 45.997 17.846 562.423 936.345" xml:space="preserve">
<g>
	<g>
		<g>
			<path fill="#33669A" d="M173.94,17.517l-42.559,0.329l65.24,89.972L173.94,17.517z M46.182,234.439l0.047,38.534l121.029,11.456
				L46.182,234.439z M168.522,316.09L46.187,288.464l0.042,27.385L168.522,316.09z M254.331,17.885h-29.483l23.771,60.139
				L254.331,17.885z M108.947,17.464L47.14,17.885l129.647,115.5L108.947,17.464z M46.229,49.703l-0.084,47.084l123.043,73.314
				L46.229,49.703z M217.089,17.885l-31.914-0.457l40.699,73.625L217.089,17.885z M491.024,17.671L445.03,17.2l-19.023,70.18
				L491.024,17.671z M293.637,17.511L269,17.923l14.722,59.571L293.637,17.511z M607.245,17.709l-46.414-0.039l-94.307,107.04
				L607.245,17.709z M537.491,17.415l-36.254,0.508l-51.953,85.727L537.491,17.415z M332.239,17.846l-29.332,0.04l11.245,55.074
				L332.239,17.846z M376.194,17.846l-31.297,0.077l12.312,61.376L376.194,17.846z M429.6,17.923l-37.568-0.077l3.164,61.454
				L429.6,17.923z M608.237,102.383l0.197-52.157L477.508,155.268L608.237,102.383z M480.032,235.05l128.205,5.577l0.121-43.431
				L480.032,235.05z M480.032,280.623l128.439,12.958l-0.037-35.507L480.032,280.623z M608.282,479.749l-122.107-1.716
				l122.107,22.027V479.749z M485.141,323.639l123.33,27.627l-0.234-40.15L485.141,323.639z M479.917,588.317v0.058h0.006
				L479.917,588.317z M608.471,363.311l-98.932,7.124l-45.967-42.945l1.898-12.035l-5.061-6.324l-10.771-5.07l-24.061-22.158
				l-12.021-13.298l0.695-9.861l-2.975-6.434l-7.037-0.876l-20.443-51.84l-10.703-4.017l-19.055-1.682l-0.152-9.028l5.131-0.807
				l2.568-8.844l0.545-5.79l3.051-4.008l-4.893-7.588c0,0,22.805-5.181,26.608-7.078c3.804-1.895,0.604-10.205-6.491-10.083
				c4.604-0.078-24.462,0.045-24.462,0.045s-10.771-17.738-17.104-10.134c-3.606,4.335-10.727,3.574-16.171,4.376
				c-5.354,0.787-7.252,3.222-7.252,3.222l4.424,15.195c0,0-7.271,6.334-20.259,11.396c-13.879,5.424,1.996,14.065,1.996,14.065
				l20.62-4.653l5.317,8.296l-4.5,9.517l-17.729-3.161l-8.236,3.161l66.49,56.984l-67.766-53.546l1.275-3.438l-40.517-32.287
				l-1.271-5.707l-13.924-12.022l-3.797,3.796l-34.827-25.326l-3.795,6.959L231.2,150.2l1.998,19.612l3.161,23.696l16.003,43.574
				l8.016,12.459l11.021,1.891l3.112-2.781l2.227,2.658l8.057-2.435l1.82-10.326l11.711-11.095l-4.885,34.204l8.703,24.174
				l-22.38,78.56l0.51,11.214l-5.914,39.059l-1.307,9.059l-0.215,11.193l1.008,12.871l-5.454,34.883l4.438,0.654l-0.979,17.188
				l-25.992,0.078c0-0.031-0.021-0.146-0.021-0.146l-44.107,0.461c0,0,6.847,0.102,10.13,8.637c0,0,2.27,7.969,15.36,7.037
				l-4.582,4.857c-6.902-0.633-15.019-3.545-18.648-13.211c-3.933-10.484-63.488-8.65-63.488-8.65s-7.368,27.332,25.866,23.139
				c0,0,23.098-5.006,37.355,10.615l4.644,3.215l-9.341,9.889c-7.069-3.969-10.126-8.948-10.126-8.948
				c-4.582-5.146-14.564-5.392-25.627-5c-8.39,0.274-16.178-0.823-16.178-0.823c-21.911-4.479-18.216-32.084-18.216-32.084
				l-33.522,0.321l7.367,37.791c-0.257,15.802,24.276,21.013,34.905,20.375c25.401-1.536,27.859-5.495,41.227,0.688
				c2.155,0.99,3.949,2.061,5.586,3.139l-10.531,11.145c-2.017-1.846-5.604-3.57-12.188-4.744
				c-6.841-1.229-12.974,2.115-34.516,0.694c-20.861-1.394-35.346-7.497-39.35-36.138c-3.003-21.455-14.676-32.4-14.676-32.4
				l-28.194-0.115l-0.096,9.311c-0.322,1.99,14.216,23.643,20.963,39.802c13.173,31.569,33.957,45.649,59.485,44.644
				c28.792-1.139,32.998,19.318,38.449,23.572c17.007,13.28,53.307-1.285,53.307-1.285c8.968-2.344,18.381-3.398,27.186-3.736
				c-0.672,1.734-0.047,3.127,1.653,7.664c0.45,1.188,0.794,1.974,1.126,2.541c-21.838-0.473-58.219,11.025-58.219,11.025
				c-20.568,7.379-33.574-8.342-33.574-8.342c-10.424-21.65-49.781-23.58-49.781-23.58c-14.962-2.146-35.934-15.916-41.512-32.52
				c-5.642-16.789-17.983-27.268-17.983-27.268v78.75c2.011,26.219,30.185,20.277,30.185,20.277
				c23.769,0.059,29.503,10.623,29.503,10.623c10.583,24.035,75.271,21.062,75.271,21.062c47.53-8.293,63.249-5.41,68.423-2.771
				l-4.326,19.707c-57.601-1.586-119.352-2.891-129.335-2.232c-13.67,0.891-17.752-8.725-17.752-8.725
				c-3.896-20.256-26.949-19.57-26.949-19.57c-15.43,1.254-25.282-4.018-25.282-4.018l0.005,38.104h74.814
				c-5.772-0.578,210.915,0.146,222.607-0.188c0.896,0.305,1.566,0.521,1.566,0.521l49.922-0.217c0,0-0.231-0.1-0.55-0.244h213.721
				l0.576-81.258l-0.051-1.834c-12.955,1.82-15.732,4.391-19.291,7.701c-3.564,3.324-5.52,15.58-6.604,18.926
				c-10.002,31.188-26.875,38.246-26.875,38.246c-15.502,12.506-87.969,16.551-143.695,17.797
				c-11.465-5.637,3.812-15.494,3.812-15.494c8.143-6.266,7.547-13.445,6.949-16.184c34.582-1.463,83.775,7.02,83.775,7.02
				c61.229,5.803,65.924-41.303,65.924-41.303c4.217-26.314,23.562-25.99,23.562-25.99c14.447,2.127,12.4-13.357,12.4-13.357
				l0.027-66.666l-5.58,16.104c-18.709,33.512-41.342,32.616-41.342,32.616c-22.785-1.378-29.748,22.554-29.748,22.554
				c-1.967,17.905-13.639,25.571-13.639,25.571c-16.76,11.571-30.891,4.772-30.891,4.772c-38.053-13.32-74.238-7.656-97.179-0.981
				c-1.479-3.429-5.352-6.485-14.649-7.146c14.426-10.779,64.631-8.459,64.631-8.459l36.654,3.105
				c34.158,9.527,38.725-12.268,38.725-12.268c4.348-34.656,37.541-38.184,37.541-38.184c36.531,0.73,49.805-57.238,49.805-57.238
				h-27.521c-6.385,29.521-28.938,31.283-28.938,31.283c-38.529-1.195-46.055,24.158-46.055,24.158
				c-7.484,12.229-14.986,18.535-21.326,21.736l-12.262-10.828c21.654-8.51,25.057-19.609,25.057-19.609
				c8.184-32.41,48.689-24.346,48.689-24.346c17.068-3.947,20.229-22.68,20.229-22.68h-32.773
				c-7.404,14.613-32.395,12.379-32.395,12.379c-20.334-0.146-22.098,12.631-22.098,12.631
				c-2.844,14.691-14.432,21.943-24.916,25.543l-10.527-9.301c9.975-2.258,21.037-8.567,28.334-24.209
				c0,0,6.652-14.85,27.525-11.791c0,0,17.412,4.224,21.906-5.615l-56.525,0.078c0,0-25.082,1.496-25.182,12.279
				c-0.092,9.832-3.812,13.85-11.35,15.729l-8.07-7.112c10.572-0.678,10.828-5.646,10.828-5.646
				c-1.01-9.7,12.58-15.328,12.58-15.328l-47.265-0.081l-0.365-0.33l-26.396,0.077l-0.051-16.34l5.141-1.312l0.291-45.633
				l-2.529-9.504l6.326-43.048l-0.229-5.564l-2.203-62.841l-7.689-15.799l10.479-15.739l0.396-16.862l9.11,7.263l-0.127,5.246
				l9.15,1.838l46.967,36.612v6.331l9.492,8.227l7.592,0.641l41.012,37.522l-15.68,1.127l20.969,3.716l36.734,33.633l-57.422,3.02
				l76.021,13.992l21.34,19.531l-98.914-2.371l128.404,28.799l-0.125-25.722l-17.195-0.412l-18.189-17.004l34.895,6.413
				l-0.061-29.872l-56.746,2.995l-32.18-30.068l89.541,15.844L608.471,363.311z M343.331,135.347l7.479,9.131l-12.215,4.142
				l-1.974-3.933C336.622,144.688,342.014,141.232,343.331,135.347z M298.956,169.237l26.025-10.032l38.917-9.696L298.956,169.237z
				 M326.773,209.927l-2.471-15.795l12.33,16.859L326.773,209.927z M357.778,210.225l-6.559,21.63l-3.688-5.455l6.489-30.012
				l9.121,10.99L357.778,210.225z M278.523,235.28l-2.359-7.826l-6.965-9.497l1.898-1.899c0,0,8.693,7.194,8.693,9.727
				C279.791,228.319,278.523,235.28,278.523,235.28z M275.82,208.917l-6.98,0.701l-2.809,6.441l-15.193-34.199l3.799-9.495
				l29.124,26.595L275.82,208.917z M385.475,675.791c5.953-1.863,9.525-5.527,10.613-9.664c3.65-1.861,8.695-3.086,14.486-3.91
				c3.418,0.715,8.393,3.127-0.133,11.162c-3.434,3.244-8.512,4.588-8.512,4.588c-11.148-0.646-2.84,14.85-2.84,14.85l5.795,0.154
				c-3.771,0.062-7.445,0.129-11.002,0.166C389.665,691.265,368.254,681.123,385.475,675.791z M333.12,290.389
				c0,0,7.859-3.275,13.105,1.306v7.865c0,0-11.959-1.986-13.713-0.765L333.12,290.389z M307.759,264.343l3.86,7.427l3.799,14.561
				l-10.192-16.926L307.759,264.343z M299.982,483.268l4.687-1.294l1.582-35.835l0.75-10.776l0.193-11.631l11.073-32.977
				l2.732-8.203l5.795-8.977l3.837,6.997l2.515,3.263l1.899,52.544l-3.162,13.946l2.052,35.059l6.308,0.576l1.961,14.387
				l-44.726,0.109L299.982,483.268z M295.76,337.819l0.339,24.239c0,0-3.554,14.569-4.212,16.534
				c-0.653,1.97-10.557,32.636-10.557,32.636L295.76,337.819z M278.052,548.195c-4.088,2.039-7.462,3.246-10.299,3.881l-8.956-0.156
				c-4.546-1.836-4.995-6.34-4.995-6.34C256.896,550.312,278.052,548.195,278.052,548.195z M250.284,689.953l3.954-16.949
				c2.387,0.629,4.785,1.248,7.293,1.756c-11.42,5.773-0.899,13.037,3.59,15.625C260.255,690.238,255.283,690.101,250.284,689.953z
				 M262.64,622.283c1.07,1.975,2.401,3.621,3.385,5.131c-3.297-0.852-5.914-1.707-7.633-2.537c0,0-5.239-1.951-7.859-4.58
				c-2.621-2.613-2.621-6.555-2.621-6.555c0.249-0.498,0.453-0.824,0.674-1.195c7.146-0.105,13.801,0.215,19.25,0.688
				C266.343,614.781,259.777,617.046,262.64,622.283z M296.487,691.343h3.859c0,0-14.263-7.867-14.721-13.512
				c18.584,1.25,38.221,0.428,55.477-1.074c-3.354,1.873-6.264,3.934-8.066,6.229c-3.656,4.705,5.82,8.672,9.879,10.102
				C333.926,692.626,317.124,692.009,296.487,691.343z M354.667,631.863c0.019,0-2.354,0.695-4.942,2.078
				c-17.134,1.812-40.221,0.43-59.207-2.078c5.209-3.525,7.347-8.439,6.974-12.496c17.857,3.893,35.688,3.414,49.577,1.842
				C355.313,623.845,361.29,626.904,354.667,631.863z M392.739,541.226c0,0,8.246,14.32-25.555,6.312
				C367.184,547.537,391.333,549.908,392.739,541.226z M479.915,588.312l-0.002-0.021c0,0,4.42,3.016,0.736,6.021v0.005H167.98
				v-0.022l-0.012,0.034c-0.622,2.237-5.732-7.263,1.945-6.019h310.001V588.312L479.915,588.312z M363.856,340.336l-0.328,16.858
				l0.23,7.988l-0.104,58.718l-4.338-85.184l-3.7-16.928L363.856,340.336z M362.954,286.673l-3.039,7.303l0.271-4.686l-1.295-7.41
				l10.404-2.649L362.954,286.673z M373.895,257.789h0.121l0.242-10.26l4.58,13.917L373.895,257.789z M343.59,297.589v-3.928
				c-2.611-3.922-8.516-1.305-8.516-1.305l-0.65,4.59C334.424,295.628,343.59,297.589,343.59,297.589z M169.901,473.667
				L45.997,472.36l0.088,19.89L169.901,473.667z M164.732,351.546L45.997,331.949l0.185,32.558L164.732,351.546z M45.997,382.689
				v30.606l120.552-20.01L45.997,382.689z M45.997,181.86v34.234l117.77,31.262L45.997,181.86z M46.137,428.834l-0.14,29.128
				l116.5-21.213L46.137,428.834z M481.299,193.261l127.172-17.727l0.01-39.347L481.299,193.261z M166.961,210.084L46.095,111.898
				l0.042,43.095L166.961,210.084z"/>
		</g>
	</g>
	<g>
		<path fill="#33669A" d="M61.226,743.074H47.172V729.02h42.163v14.056H75.28v121.551H61.226V743.074z"/>
		<path fill="#33669A" d="M98.069,775.93c0-2.911,0.569-5.632,1.709-8.166c1.14-2.529,2.659-4.748,4.558-6.646
			c1.899-1.899,4.113-3.419,6.647-4.561c2.531-1.14,5.252-1.709,8.167-1.709c2.911,0,5.633,0.569,8.167,1.709
			c2.531,1.142,4.748,2.659,6.647,4.561c1.899,1.897,3.419,4.116,4.559,6.646c1.139,2.534,1.709,5.255,1.709,8.166v68.752
			c0,2.915-0.57,5.638-1.709,8.167c-1.14,2.534-2.659,4.748-4.559,6.647c-1.899,1.897-4.116,3.419-6.647,4.559
			c-2.534,1.141-5.256,1.709-8.167,1.709c-2.914,0-5.635-0.568-8.167-1.709c-2.534-1.14-4.748-2.658-6.647-4.559
			c-1.899-1.899-3.418-4.113-4.558-6.647c-1.14-2.529-1.709-5.252-1.709-8.167V775.93z M112.124,850.57h14.054v-80.527h-14.054
			V850.57z"/>
		<path fill="#33669A" d="M154.285,755.989h56.217c3.923,0,7.247,1.36,9.971,4.083c2.721,2.725,4.083,6.048,4.083,9.971v94.582
			h-14.055v-94.582h-14.054v94.582h-14.054v-94.582h-14.054v94.582h-14.054V755.989z"/>
		<path fill="#33669A" d="M266.715,829.299h14.054v21.271h14.054v-46.723H280.77c-3.926,0-7.25-1.357-9.971-4.083
			c-2.724-2.722-4.083-6.045-4.083-9.972V748.96c0-2.911,0.569-5.633,1.709-8.167c1.14-2.531,2.659-4.748,4.558-6.646
			c1.899-1.899,4.113-3.421,6.647-4.561c2.531-1.14,5.252-1.709,8.167-1.709c2.911,0,5.633,0.569,8.167,1.709
			c2.531,1.14,4.748,2.659,6.647,4.561c1.899,1.896,3.419,4.113,4.559,6.646c1.139,2.534,1.709,5.256,1.709,8.167v15.384h-14.054
			v-21.271H280.77v46.721h14.054c3.923,0,7.247,1.362,9.971,4.084c2.722,2.724,4.083,6.048,4.083,9.971v40.833
			c0,2.915-0.57,5.638-1.709,8.167c-1.14,2.534-2.659,4.748-4.559,6.647c-1.899,1.897-4.116,3.419-6.647,4.559
			c-2.534,1.141-5.256,1.709-8.167,1.709c-2.914,0-5.635-0.568-8.167-1.709c-2.534-1.14-4.748-2.658-6.647-4.559
			s-3.418-4.113-4.558-6.647c-1.14-2.529-1.709-5.252-1.709-8.167V829.299L266.715,829.299z"/>
		<path fill="#33669A" d="M365.092,864.625h-28.107c-3.926,0-7.25-1.359-9.971-4.083c-2.724-2.722-4.083-6.045-4.083-9.972V798.72
			c0-3.923,1.359-7.247,4.083-9.971c2.721-2.722,6.045-4.084,9.971-4.084h14.055v-14.624h-25.071v-14.054h25.071
			c3.922,0,7.246,1.36,9.969,4.083c2.726,2.725,4.084,6.048,4.084,9.971V864.625L365.092,864.625z M336.985,850.57h14.055V798.72
			h-14.055V850.57z"/>
		<path fill="#33669A" d="M449.417,850.57c0,3.927-1.361,7.25-4.084,9.972c-2.723,2.724-6.047,4.083-9.971,4.083h-56.217V755.989
			H393.2v94.581h14.055v-94.581h14.055v94.581h14.057v-94.581h14.055v94.581H449.417z"/>
		<path fill="#33669A" d="M505.631,891.213h-14.055v-26.589h-14.055c-3.93,0-7.25-1.359-9.975-4.083
			c-2.723-2.722-4.082-6.045-4.082-9.972v-94.581h14.057v94.581h14.055v-94.581h14.055V891.213z"/>
		<path fill="#33669A" d="M519.684,775.93c0-2.911,0.568-5.632,1.709-8.166c1.141-2.529,2.658-4.748,4.559-6.646
			c1.898-1.899,4.113-3.419,6.646-4.561c2.531-1.14,5.252-1.709,8.166-1.709c2.912,0,5.635,0.569,8.168,1.709
			c2.531,1.142,4.748,2.659,6.646,4.561c1.898,1.898,3.418,4.116,4.559,6.646c1.141,2.534,1.709,5.255,1.709,8.166v41.403h-28.107
			v33.236h14.055v-14.056h14.055v8.166c0,2.915-0.568,5.638-1.711,8.167c-1.139,2.534-2.656,4.748-4.557,6.647
			c-1.9,1.897-4.117,3.419-6.648,4.559c-2.531,1.141-5.256,1.709-8.166,1.709c-2.912,0-5.635-0.568-8.166-1.709
			c-2.533-1.14-4.75-2.658-6.645-4.559c-1.9-1.899-3.42-4.113-4.561-6.647c-1.141-2.529-1.709-5.252-1.709-8.167v-68.75H519.684z
			 M533.739,803.28h14.055v-33.237h-14.055V803.28z"/>
		<path fill="#33669A" d="M575.899,770.042c0-3.923,1.359-7.246,4.084-9.971c2.721-2.723,6.045-4.083,9.971-4.083h14.055v14.054
			h-14.055v94.582h-14.055V770.042z"/>
	</g>
	<g>
		<path fill="#33669A" d="M76.626,923.273c-0.994-0.848-2.107-1.52-3.34-2.017c-1.234-0.497-2.512-0.745-3.837-0.745
			c-0.516,0-1.04,0.074-1.573,0.223c-0.534,0.146-1.031,0.366-1.491,0.662c-0.46,0.295-0.837,0.652-1.132,1.075
			c-0.295,0.425-0.441,0.932-0.441,1.52c0,0.627,0.166,1.149,0.497,1.573c0.332,0.424,0.736,0.791,1.215,1.104
			c0.478,0.313,0.994,0.571,1.546,0.773c0.552,0.201,1.067,0.378,1.546,0.522l2.76,0.828c1.436,0.441,2.779,0.966,4.03,1.573
			c1.251,0.605,2.337,1.353,3.258,2.235c0.919,0.884,1.646,1.94,2.181,3.176c0.533,1.231,0.8,2.694,0.8,4.389
			c0,2.062-0.304,4.095-0.911,6.101c-0.607,2.009-1.739,3.709-3.396,5.107c-1.656,1.399-3.516,2.401-5.576,3.009
			c-2.062,0.607-4.141,0.911-6.239,0.911c-2.65,0-5.217-0.414-7.702-1.242c-2.484-0.828-4.794-1.996-6.929-3.506l4.638-8.724
			c1.361,1.179,2.834,2.188,4.417,3.037c1.582,0.847,3.312,1.27,5.189,1.27c0.625,0,1.251-0.083,1.877-0.249
			c0.625-0.165,1.187-0.414,1.684-0.745c0.497-0.331,0.902-0.764,1.215-1.297c0.312-0.533,0.469-1.168,0.469-1.905
			c0-0.771-0.23-1.416-0.69-1.933c-0.461-0.515-1.031-0.956-1.712-1.324s-1.399-0.663-2.153-0.884
			c-0.755-0.221-1.427-0.423-2.015-0.607c-1.694-0.478-3.23-0.982-4.61-1.519c-1.38-0.532-2.567-1.223-3.561-2.07
			c-0.994-0.846-1.758-1.913-2.291-3.202c-0.534-1.286-0.801-2.942-0.801-4.969c0-2.098,0.359-4.011,1.077-5.741
			c0.718-1.729,1.711-3.201,2.981-4.417c1.27-1.215,2.779-2.151,4.527-2.814c1.748-0.662,3.671-0.993,5.77-0.993
			c1.03,0,2.125,0.083,3.285,0.248c1.16,0.166,2.3,0.396,3.423,0.689c1.122,0.296,2.226,0.652,3.312,1.075
			c1.085,0.425,2.088,0.896,3.009,1.408L76.626,923.273z"/>
		<path fill="#33669A" d="M143.925,911.182c2.981,0,5.861,0.524,8.641,1.573c2.778,1.05,5.235,2.521,7.371,4.417
			c2.134,1.896,3.837,4.16,5.107,6.791c1.27,2.632,1.905,5.513,1.905,8.641c0,3.389-0.571,6.479-1.712,9.275
			c-1.141,2.797-2.733,5.217-4.775,7.26c-2.043,2.043-4.472,3.626-7.288,4.748c-2.815,1.122-5.898,1.686-9.248,1.686
			c-3.35,0-6.432-0.562-9.248-1.686c-2.816-1.122-5.245-2.705-7.288-4.748s-3.635-4.463-4.776-7.26
			c-1.141-2.797-1.711-5.889-1.711-9.275c0-3.128,0.635-6.009,1.905-8.641c1.27-2.631,2.972-4.895,5.107-6.791
			c2.134-1.896,4.591-3.367,7.371-4.417C138.063,911.707,140.943,911.182,143.925,911.182z M143.925,921.672
			c-1.62,0-3.138,0.304-4.555,0.911c-1.417,0.606-2.66,1.417-3.727,2.429c-1.068,1.015-1.915,2.183-2.54,3.506
			c-0.626,1.325-0.938,2.705-0.938,4.143c0,1.804,0.312,3.46,0.938,4.969c0.625,1.51,1.472,2.816,2.54,3.92
			c1.067,1.104,2.309,1.97,3.727,2.596c1.417,0.627,2.935,0.938,4.555,0.938c1.619,0,3.138-0.312,4.555-0.938
			c1.417-0.625,2.659-1.489,3.727-2.596c1.067-1.104,1.913-2.41,2.54-3.92c0.625-1.509,0.938-3.165,0.938-4.969
			c0-1.438-0.313-2.815-0.938-4.143c-0.626-1.323-1.473-2.491-2.54-3.506c-1.068-1.012-2.311-1.82-3.727-2.429
			C147.062,921.976,145.544,921.672,143.925,921.672z"/>
		<path fill="#33669A" d="M216.499,921.727v6.957h11.87v9.165h-11.87v16.344h-10.821v-41.631h23.906v9.165H216.499L216.499,921.727z
			"/>
		<path fill="#33669A" d="M288.178,954.191h-10.821v-32.466h-8.944v-9.164h28.709v9.164h-8.944V954.191z"/>
		<path fill="#33669A" d="M350.776,939.45h0.109l8.725-26.888h8.611l8.172,26.888h0.109l7.842-26.888h11.262l-13.305,41.629h-11.043
			l-7.287-24.127h-0.111l-8.17,24.127h-10.986l-12.422-41.629h11.262L350.776,939.45z"/>
		<path fill="#33669A" d="M442.997,946.958l-2.871,7.232h-11.482l16.014-41.631h11.812l15.682,41.631H460.61l-2.705-7.232H442.997z
			 M450.559,925.426h-0.109l-4.471,13.251h8.998L450.559,925.426z"/>
		<path fill="#33669A" d="M543.838,954.191h-13.473l-10.213-16.013h-0.111v16.013h-10.82v-41.631h16.178
			c2.061,0,3.975,0.249,5.74,0.746c1.768,0.497,3.293,1.271,4.582,2.318c1.289,1.049,2.301,2.384,3.037,4.003
			c0.736,1.62,1.105,3.533,1.105,5.742c0,1.436-0.193,2.807-0.58,4.112c-0.389,1.307-0.969,2.483-1.738,3.532
			c-0.773,1.05-1.73,1.934-2.871,2.649c-1.143,0.718-2.449,1.206-3.92,1.464L543.838,954.191z M520.042,931.223h1.049
			c0.885,0,1.77-0.055,2.65-0.165c0.883-0.108,1.684-0.35,2.4-0.718c0.719-0.368,1.309-0.893,1.768-1.573
			c0.461-0.68,0.689-1.592,0.689-2.731c0-1.143-0.229-2.052-0.689-2.732c-0.459-0.68-1.049-1.205-1.768-1.572
			c-0.717-0.367-1.518-0.607-2.4-0.72c-0.883-0.109-1.768-0.165-2.65-0.165h-1.049V931.223z"/>
		<path fill="#33669A" d="M592.049,921.727v6.957h12.201v9.165h-12.201v7.179h12.863v9.164h-23.688v-41.63h23.688v9.165H592.049
			L592.049,921.727z"/>
	</g>
</g>
</svg>
