<?xml version="1.0" encoding="utf-8"?>
<!-- Generator: Adobe Illustrator 16.0.4, SVG Export Plug-In . SVG Version: 6.00 Build 0)  -->
<!DOCTYPE svg PUBLIC "-//W3C//DTD SVG 1.1//EN" "http://www.w3.org/Graphics/SVG/1.1/DTD/svg11.dtd">
<svg xmlns="http://www.w3.org/2000/svg" viewBox="0 0 180 53" width="115px" height="34px">
	<g fill="#33669A">
		<path d="M55.363 3.537h-3.187V.301h9.561v3.235H58.55v28.015h-3.187V3.537zM63.718 11.371c0-.67.129-1.296.387-1.88a5.038 5.038 0 0 1 2.541-2.58 4.406 4.406 0 0 1 1.852-.393c.66 0 1.278.131 1.852.393a5.02 5.02 0 0 1 2.541 2.58 4.59 4.59 0 0 1 .387 1.88v15.827c0 .671-.129 1.298-.387 1.88a5.017 5.017 0 0 1-2.541 2.579 4.412 4.412 0 0 1-1.852.393 4.406 4.406 0 0 1-1.852-.393 5.005 5.005 0 0 1-1.507-1.049 5.11 5.11 0 0 1-1.034-1.53 4.59 4.59 0 0 1-.387-1.88V11.371zm3.187 17.182h3.187V10.016h-3.187v18.537zM76.465 6.781h12.748c.889 0 1.643.313 2.261.94.617.627.926 1.392.926 2.295v21.773h-3.187V10.016h-3.187v21.773h-3.187V10.016h-3.187v21.773h-3.187V6.781zM102.17 23.657h3.187v4.897h3.187V17.798h-3.186c-.89 0-1.644-.313-2.261-.94-.618-.626-.926-1.392-.926-2.295v-9.4c0-.67.13-1.297.388-1.88A5.038 5.038 0 0 1 105.1.703a4.406 4.406 0 0 1 1.852-.394c.66 0 1.278.131 1.852.394a5.015 5.015 0 0 1 1.507 1.05 5.11 5.11 0 0 1 1.034 1.53c.258.583.387 1.21.387 1.88v3.541h-3.187V3.808h-3.187v10.755h3.187c.889 0 1.643.314 2.261.94.617.627.926 1.392.926 2.295v9.4c0 .671-.129 1.298-.387 1.88a5.092 5.092 0 0 1-1.034 1.53 5.05 5.05 0 0 1-1.507 1.05 4.412 4.412 0 0 1-1.852.393 4.406 4.406 0 0 1-1.852-.393 5.007 5.007 0 0 1-2.541-2.58 4.575 4.575 0 0 1-.388-1.88l-.001-3.541zM124.479 31.789h-6.374c-.89 0-1.644-.313-2.261-.94-.618-.626-.926-1.391-.926-2.296V16.618c0-.903.308-1.668.926-2.295.617-.627 1.371-.94 2.261-.94h3.187v-3.367h-5.685V6.781h5.685c.889 0 1.643.313 2.26.94.618.627.926 1.392.926 2.295l.001 21.773zm-6.374-3.236h3.187V16.618h-3.187v11.935zM143.601 28.553c0 .904-.309 1.669-.926 2.296-.618.627-1.371.94-2.261.94h-12.748V6.781h3.187v21.772h3.187V6.781h3.187v21.772h3.187V6.781h3.187v21.772zM156.348 37.909h-3.187v-6.121h-3.187c-.891 0-1.644-.313-2.261-.94-.618-.627-.926-1.392-.926-2.296V6.781h3.187v21.773h3.187V6.781h3.187v31.128zM159.535 11.371c0-.67.129-1.296.387-1.88a5.11 5.11 0 0 1 1.034-1.53 5.05 5.05 0 0 1 1.507-1.05 4.406 4.406 0 0 1 1.852-.393c.66 0 1.278.131 1.852.393a5.02 5.02 0 0 1 2.541 2.58c.259.583.388 1.209.388 1.88v9.531h-6.374v7.651h3.187v-3.235h3.187v1.88c0 .671-.129 1.298-.388 1.88a5.03 5.03 0 0 1-2.541 2.579 4.41 4.41 0 0 1-1.852.394 4.391 4.391 0 0 1-1.852-.394 5.005 5.005 0 0 1-1.507-1.049 5.11 5.11 0 0 1-1.034-1.53 4.587 4.587 0 0 1-.387-1.88V11.371zm3.187 6.296h3.187v-7.651h-3.187v7.651zM172.283 10.016c0-.903.308-1.668.926-2.295.617-.627 1.371-.94 2.261-.94h3.187v3.235h-3.187v21.773h-3.187V10.016z"></path>
		<g>
			<path d="M57.8 45.281a2.72 2.72 0 0 0-.757-.464 2.286 2.286 0 0 0-.87-.171 1.316 1.316 0 0 0-.695.203.908.908 0 0 0-.257.248.6.6 0 0 0-.1.349c0 .144.038.265.113.362.075.097.167.182.275.254.108.072.225.132.351.178.125.046.242.087.351.121l.626.191c.326.102.63.222.914.362.283.14.53.311.739.515.208.203.373.447.495.731.121.284.181.621.181 1.01 0 .475-.069.943-.207 1.405a2.433 2.433 0 0 1-.77 1.176 3.437 3.437 0 0 1-1.264.693 4.91 4.91 0 0 1-1.415.21 5.408 5.408 0 0 1-1.747-.286 5.98 5.98 0 0 1-1.571-.807l1.052-2.008c.309.271.643.504 1.002.699.359.195.751.292 1.177.292.142 0 .284-.019.426-.057.142-.038.269-.095.382-.171a.898.898 0 0 0 .276-.298.862.862 0 0 0 .106-.439.647.647 0 0 0-.157-.445 1.434 1.434 0 0 0-.388-.305 2.404 2.404 0 0 0-.488-.203 21.793 21.793 0 0 1-.457-.14 11.5 11.5 0 0 1-1.045-.349 2.767 2.767 0 0 1-.808-.477 1.912 1.912 0 0 1-.52-.737c-.121-.296-.182-.677-.182-1.144 0-.483.082-.923.245-1.322a2.95 2.95 0 0 1 .676-1.017 3 3 0 0 1 1.027-.648 3.622 3.622 0 0 1 1.308-.229c.234 0 .482.019.745.057a6.754 6.754 0 0 1 1.527.406c.246.098.474.206.682.324l-.978 1.931zM72.922 42.497c.677 0 1.329.121 1.96.362.63.241 1.187.58 1.671 1.017.484.437.87.958 1.158 1.564.288.606.432 1.269.432 1.989 0 .78-.13 1.491-.388 2.135a5.021 5.021 0 0 1-1.083 1.671 4.835 4.835 0 0 1-1.652 1.093c-.638.258-1.338.388-2.097.388s-1.458-.13-2.097-.388a4.825 4.825 0 0 1-1.653-1.093 5.021 5.021 0 0 1-1.083-1.671c-.259-.644-.388-1.355-.388-2.135 0-.72.144-1.383.432-1.989a4.94 4.94 0 0 1 1.158-1.564 5.324 5.324 0 0 1 1.671-1.017 5.438 5.438 0 0 1 1.959-.362zm0 2.415c-.367 0-.711.07-1.033.21-.321.14-.603.326-.845.559a2.682 2.682 0 0 0-.576.807 2.234 2.234 0 0 0-.213.953c0 .415.071.797.213 1.144.142.348.334.648.576.903.242.254.524.453.845.598a2.5 2.5 0 0 0 1.033.216c.367 0 .712-.072 1.033-.216.322-.144.603-.343.845-.598a2.86 2.86 0 0 0 .576-.903c.142-.347.213-.729.213-1.144 0-.33-.071-.648-.213-.953a2.682 2.682 0 0 0-.576-.807 2.847 2.847 0 0 0-.845-.559 2.561 2.561 0 0 0-1.033-.21zM89.111 44.925v1.919h2.692v2.11h-2.692v3.762h-2.454v-9.902h5.421v2.11h-2.967v.001zM105.08 52.716h-2.454v-7.791h-2.028v-2.11h6.51v2.11h-2.028v7.791zM119.799 49.005h.025l1.978-6.19h1.953l1.853 6.19h.025l1.778-6.19h2.554l-3.017 9.901h-2.504l-1.653-5.872h-.025l-1.852 5.872h-2.491l-2.817-9.901h2.554l1.639 6.19zM141.766 51.051l-.651 1.665h-2.604l3.631-9.902h2.679l3.556 9.902h-2.617l-.614-1.665h-3.38zm1.715-5.275h-.025l-1.014 3.368h2.041l-1.002-3.368zM164.754 52.716h-3.055l-2.316-4.004h-.025v4.004h-2.454v-9.901h3.669c.467 0 .901.057 1.302.172.401.114.747.293 1.039.534.292.242.522.549.689.922.167.373.251.813.251 1.322 0 .33-.044.646-.132.947a2.624 2.624 0 0 1-.394.813 2.356 2.356 0 0 1-.651.61 2.437 2.437 0 0 1-.889.337l2.966 4.244zm-5.397-5.605h.238c.201 0 .401-.013.601-.038.2-.025.382-.081.544-.165.163-.085.297-.205.401-.362.105-.156.156-.366.156-.629s-.052-.473-.156-.629a1.072 1.072 0 0 0-.401-.362 1.631 1.631 0 0 0-.544-.166 4.85 4.85 0 0 0-.601-.038h-.238v2.389zM175.735 44.925v1.601h2.767v2.11h-2.767v1.97h2.917v2.11h-5.371v-9.901h5.371v2.11h-2.917z"></path>
		</g>
	</g>
	<path fill="none"
	      d="M24.074 52.693c-.421-.022-1.065-.058-1.862-.058h-.011c.804 0 1.454.042 1.877.064l-.004-.006zM30.75 52.635h-1.458c.022 0 .045.026.07.038.451-.01.916-.038 1.388-.038z"></path>
	<path fill="none"
	      d="M22.212 52.635c.797 0 1.441.047 1.862.069-.05-.018-.11-.069-.175-.069h-1.687zM28.827 52.663l-.444-.001s-.007-.027-.019-.027h-.514c.055 0 .102.037.134.052.272-.003.554-.019.843-.024z"></path>
	<path fill="#33669A"
	      d="M1.343 6.289l.014.009v-.267c.001.124-.012.213-.014.258zM44.368 32.678l-.009-2.324-.01.001v2.321zM24.074 52.693l.003.006c-.05-.018-.111-.063-.176-.063h-.003c.066-.001.126.039.176.057zM23.561 21.82c.204.001.603.085.603.085s-.404-.086-.603-.085zM24.164 21.6zM23.444 21.856c0-.007.004-.013.011-.018l.019-.161-.03.179zM23.321 51.886a.276.276 0 0 0-.063.169c0-.054.02-.109.063-.166.138-.179.361-.337.618-.482l-.01.001c-.253.143-.472.302-.608.478zM20.52 52.577c.61.022 1.176 0 1.681.057h.011c-.508-.056-1.078-.034-1.692-.057zM44.279 47.882a8.335 8.335 0 0 1-.329 1.153 5.83 5.83 0 0 0 .329-1.153zM20.276.287h-1.831l1.097 4.506zM23.216.287h-2.178l.836 4.154zM44.349 6.738v-.715c0-.996-.241-1.934-.681-2.75l-9.289 7.562 9.97-4.097zM42.373 1.647A5.637 5.637 0 0 0 40.417.545L33.55 8.457l8.823-6.81zM14.451.287h-2.37l3.028 5.561zM17.274.287h-2.176l1.754 4.506zM11.169.287H7.964l4.903 6.865zM2.038 3.313c-.501 1.114-.624 2.21-.68 2.717v.267l9.407 5.69-8.727-8.674zM26.587.287h-2.332l.918 4.647zM44.349 26.067v-3.105l-9.39.97zM44.349 12.42V9.378l-9.685 4.412zM30.65.287h-2.802l.236 4.647zM44.349 21.588v-2.746l-9.782 1.744zM44.349 17.473v-3.361l-9.782 2.929zM6.272.328A5.6 5.6 0 0 0 3.21 1.772l8.138 7.36L6.272.328zM35.292.287h-3.438l-1.409 5.275zM38.818.284c-.037-.001-.074.003-.111.003h-2.574l-3.905 6.539 6.59-6.542zM1.358 32.117v2.258l8.894-1.644zM1.358 24.584v2.525l9.066-1.006z"></path>
	<path fill="#33669A"
	      d="M23.554 21.82c.199-.001.596.085.596.085V21.6a.432.432 0 0 0-.358-.168c-.16.002-.294.066-.294.066l-.027.179-.021.161c.018-.013.054-.018.104-.018z"></path>
	<path fill="#33669A"
	      d="M23.455 21.838l-.002.018c0-.025.043-.035.108-.035-.051-.001-.089.004-.106.017zM23.799 21.432c-.164.002-.305.066-.305.066l-.021.179.029-.179c.001.001.137-.063.297-.066zM1.358 35.502v1.543l9.462-1.442zM44.349 37.636v-1.561l-9.244-.132zM42.433 48.293c-.767 2.426-2.06 2.986-2.06 2.986-1.063.87-5.618 1.185-9.624 1.357h7.957c2.37 0 4.399-1.49 5.242-3.588.15-.408.247-.808.32-1.159a5.91 5.91 0 0 0 .079-1.02v-.635c-.959.141-1.151.336-1.418.589-.272.257-.413 1.209-.496 1.47zM23.929 51.407a.088.088 0 0 1 .01-.006c-1.322.117-2.827.19-4.251.093 1.42.098 2.921.029 4.241-.087zM23.899 52.635h.003c-.278-.115-.643-.321-.644-.558-.002.237.362.443.641.558zM1.414 30.907l9.238-1.557-9.238-.824zM1.358 17.001v2.991l9.259.89zM1.358 15.553l9.081 2.445-9.081-5.152zM1.358 21.2v2.126l9.356.019zM1.358 7.481v3.342l9.236 4.276z"></path>
	<path fill="none"
	      d="M20.49 26.921l-.026-1.886-1.106 5.71.809-2.539c.051-.152.323-1.285.323-1.285zM24.376 22.059v-.612c-.451-.356-1.027-.102-1.027-.102l-.035.655c.135-.095 1.062.059 1.062.059zM17.022 12.903l1.164 2.66.215-.501.535-.054.609-.775-2.232-2.069zM23.873 36.559l-.483-.044-.157-2.728.242-1.085-.146-4.087-.192-.254-.294-.544-.444.698-.21.638-.848 2.565-.015.905-.058.838-.121 2.788-.359.101-.192 1.337 3.427-.009zM24.432 16.368l.282.424.503-1.682.411-.222-.699-.855zM18.575 15.563l-.145.148.534.739.181.609s.097-.542.097-.739c-.001-.197-.667-.757-.667-.757zM24.683 9.995l-.573-.71c-.101.458-.514.727-.514.727l.151.306.936-.323zM25.658 18.124l-5.095-4.433-.097.268zM17.632 41.69l.686.012c.217-.049.476-.143.789-.302 0 0-1.621.165-1.858-.204 0 .001.035.352.383.494zM22.841 15.086l.755.083-.944-1.311zM21.68 19.897l-.296-.578-.194.394.781 1.317zM26.461 18.786h-.009l.379.288-.351-1.072zM25.401 21.26l-.02.365.232-.568.486-.579-.797.206zM17.841 51.246a9.316 9.316 0 0 1-.559-.137l-.303 1.319 1.137.034c-.343-.201-1.15-.767-.275-1.216zM25.335 25.105l.332 6.627.008-4.568-.018-.622.025-1.311-.631-1.443zM10.641 45.018h23.985l.025.004a.28.28 0 0 0 .118-.249c0-.211-.194-.214-.194-.214H10.821c-.533 0-.296.459-.18.459zM18.325 46.46a14.551 14.551 0 0 0-1.475-.054c-.017.029-.032.054-.052.093 0 0 0 .307.201.51.201.204.602.356.602.356.132.065.332.131.585.197-.075-.117-.177-.246-.259-.399-.22-.406.283-.582.398-.703zM24.396 47.081c-1.064.122-2.431.159-3.799-.143.029.316-.135.698-.534.972 1.455.195 3.224.303 4.537.162.199-.108.38-.162.379-.162.507-.386.049-.624-.583-.829zM27.896 40.859c-.108.675-1.958.491-1.958.491 2.59.623 1.958-.491 1.958-.491z"></path>
	<path fill="#33669A"
	      d="M44.349 27.023l-7.511.55-3.518-3.341.148-.936-.387-.492-.825-.394-1.843-1.724-.921-1.035.053-.767-.228-.5-.539-.068-1.567-4.033-.82-.312-1.46-.131-.012-.702.393-.063.197-.688.042-.45.234-.312-.375-.59s1.748-.403 2.039-.551c.291-.147.046-.794-.497-.784.353-.006-1.874.004-1.874.004s-.825-1.38-1.311-.788c-.276.337-.822.278-1.239.34-.41.061-.556.251-.556.251l.339 1.182s-.557.493-1.552.887c-1.064.422.153 1.094.153 1.094l1.58-.362.407.645-.345.74-1.358-.246-.631.246 5.095 4.433-5.193-4.165.098-.267-3.105-2.512-.097-.444-1.067-.935-.291.295-2.669-1.97-.291.541 2.474 1.773.153 1.526.242 1.843 1.226 3.39.614.969.845.147.238-.216.171.207.618-.189.139-.803.897-.863-.375 2.661.667 1.881-1.715 6.111.039.872-.453 3.038-.1.705-.016.871.077 1.001-.418 2.714.34.051-.075 1.337-5.356-.015s.508.053.759.717c0 0 .174.62 1.177.547l-.351.378c-.529-.049-1.151-.276-1.429-1.028-.301-.816-4.878-.615-4.878-.615s-.552 2.068 1.995 1.742c0 0 1.77-.39 2.863.826l.356.25-.716.769c-.542-.309-.776-.696-.776-.696-.351-.4-1.116-.419-1.964-.389-.643.021-1.24-.059-1.24-.059-1.679-.348-1.402-2.433-1.402-2.433H5.153l.52 2.902c-.02 1.229 1.86 1.632 2.675 1.582 1.946-.119 2.135-.429 3.159.052.165.077.303.16.428.244l-.807.867c-.154-.144-.429-.278-.934-.369-.524-.095-.994.164-2.645.054-1.599-.111-2.709-.587-3.016-2.814-.23-1.669-1.136-2.53-1.136-2.53l-2.039.001v1.002c.282.56 1.08 1.822 1.489 2.818 1.01 2.456 2.602 3.551 4.558 3.473 2.206-.089 2.529 1.503 2.946 1.834 1.303 1.033 4.085-.1 4.085-.1a9.746 9.746 0 0 1 2.083-.291c-.051.135-.004.243.126.596.035.092.061.153.086.198-1.673-.037-4.461.858-4.461.858-1.576.574-2.573-.649-2.573-.649-.799-1.684-3.815-1.834-3.815-1.834-1.147-.167-2.765-1.238-3.193-2.53-.37-1.116-1.108-1.873-1.333-2.07v5.886c0 .218.012.432.036.644.466 1.511 2.233 1.123 2.233 1.123 1.821.004 2.267.826 2.267.826.811 1.87 5.771 1.638 5.771 1.638 3.642-.645 4.848-.421 5.245-.216l-.331 1.533c-4.414-.123-9.146-.225-9.911-.174-1.047.069-1.36-.679-1.36-.679-.299-1.576-2.065-1.522-2.065-1.522-.36.03-.679.032-.951-.002 1.012 1.557 2.751 2.595 4.726 2.595H22.2c-.505-.057-.775-.046-1.385-.068 0 0-1.093-.627-1.128-1.066 1.424.097 2.929.021 4.251-.096l-.01.004.01-.002c-.257.146-.48.303-.618.482a.304.304 0 0 0-.063.177c.001.237.366.454.644.569h3.947c-.491-.286-1.696-.924-.51-1.297.456-.145.73-.436.813-.757.28-.145.666-.243 1.11-.307.262.056.643.242-.01.867-.263.252-.652.367-.652.367-.764-.045-.336.898-.237 1.127h.929c-.742-.458.362-1.178.362-1.178.624-.487.578-1.051.532-1.265 2.65-.114 6.42.543 6.42.543 4.692.451 5.052-3.214 5.052-3.214.323-2.047 1.797-2.022 1.797-2.022.578.086.837-.201.893-.495V39.42l-.368 1.106c-1.434 2.607-3.164 2.537-3.164 2.537-1.746-.107-2.277 1.754-2.277 1.754-.151 1.393-1.044 1.989-1.044 1.989-1.284.9-2.366.371-2.366.371-2.916-1.036-5.689-.596-7.447-.076-.113-.267-.41-.505-1.123-.556 1.106-.839 4.953-.658 4.953-.658l2.809.242c2.618.741 2.968-.954 2.968-.954.333-2.696 2.877-2.946 2.877-2.946 2.799.057 3.844-4.543 3.844-4.543h-2.118c-.481 2.405-2.236 2.524-2.236 2.524-2.953-.093-3.529 1.867-3.529 1.867-.574.952-1.148 1.436-1.634 1.685l-.94-.846c1.659-.662 1.92-1.527 1.92-1.527.627-2.521 3.731-1.859 3.731-1.859 1.308-.307 1.585-1.844 1.585-1.844h-2.504c-.538 1.203-2.525 1.042-2.525 1.042-1.558-.011-1.693.965-1.693.965-.218 1.143-1.106 1.698-1.909 1.978l-.807-.728c.764-.176 1.612-.669 2.171-1.886 0 0 .51-1.156 2.109-.918 0 0 1.367.296 1.711-.469l-4.331.006s-1.955.148-1.962.986c-.007.765-.292 1.077-.87 1.224l-.618-.553c.81-.053.83-.439.83-.439-.077-.755.988-1.217.988-1.217l-5.697-.001-.004-1.271.394-.102.022-3.55-.193-.74.485-3.349-.018-.433-.169-4.888-.589-1.229.803-1.224.03-1.312.698.565-.01.408.7.143 3.598 2.848v.492l.729.64.582.05 3.143 2.919-1.201.088 1.607.289 2.815 2.616-4.4.235 5.826 1.088 1.635 1.519-7.589-.184 9.773 2.227v-1.989l-1.261-.031-1.398-1.323 2.659.497v-2.322l-4.334.233-2.47-2.339 6.804 1.223v-2.447zM24.11 9.285l.573.71-.936.322-.151-.306c-.001 0 .413-.268.514-.726zm-3.401 2.636l1.994-.78 2.982-.754-4.976 1.534zm2.132 3.165l-.189-1.229.945 1.311-.756-.082zm2.376.024l-.503 1.683-.282-.424.497-2.335.699.855-.411.221zm-6.073 1.949l-.181-.609-.534-.739.145-.148s.666.56.666.757c.001.197-.096.739-.096.739zm-.208-2.051l-.535.055-.215.501-1.164-2.66.291-.739 2.232 2.069-.609.774zm4.414 6.338s.575-.255 1.027.102v.612s-.928-.154-1.062-.06l.035-.654zm-1.966-2.027l.296.578.291 1.133-.781-1.317.194-.394zm-.596 17.031l.359-.101.121-2.788.057-.838.015-.905.848-2.565.209-.638.444-.698.294.544.193.254.146 4.087-.242 1.085.157 2.727.483.045.15 1.119-3.427.008.193-1.336zm-.324-11.315l.026 1.886s-.272 1.133-.323 1.286c-.05.153-.809 2.539-.809 2.539l1.106-5.711zm-1.357 16.366a3.493 3.493 0 0 1-.789.302l-.686-.012c-.348-.143-.383-.493-.383-.493.237.367 1.858.203 1.858.203zM16.98 52.428l.303-1.319c.183.049.367.097.559.137-.875.449-.069 1.014.275 1.216l-1.137-.034zm.946-5.264c.082.154.184.282.259.399a3.398 3.398 0 0 1-.585-.197s-.402-.152-.602-.356c-.201-.203-.201-.51-.201-.51.019-.039.035-.064.052-.093a14.54 14.54 0 0 1 1.475.054c-.114.12-.617.296-.398.703zm7.052.745c.001 0-.18.054-.379.162-1.313.141-3.082.033-4.537-.162.399-.274.563-.657.534-.972 1.368.303 2.735.266 3.799.143.633.206 1.091.444.583.829zm9.61-3.388zm-6.692-3.662s.632 1.114-1.958.491c0 0 1.85.184 1.958-.491zm6.68 3.7s.194.005.194.217a.272.272 0 0 1-.118.243l-.025-.001H10.641c-.117 0-.353-.458.179-.458h23.756zm-8.894-19.328l-.025 1.311.018.621-.008 4.568-.332-6.626-.284-1.317.631 1.443zm-.069-4.174l-.233.568.021-.365-.099-.576.797-.206-.486.579zm.839-2.271h.009L26.48 18l.351 1.077-.379-.291z"></path>
</svg>
